# xmcd
#
# Track frame offsets: 
#        150
#        23935
#        52093
#        77668
#        103250
#        126742
#        149856
#        177679
#        201319
#        221029
#        247089
#        269272
#
# Disc length: 3938 seconds
#
# Revision: 0
# Processed by: cddbd v1.5.2PL0 Copyright (c) Steve Scherf et al.
# Submitted via: ExactAudioCopy v1.0b3
#
DISCID=d00f600c
DTITLE=Various Artist - Cho Nguoi Tinh Nho
DYEAR=1900
DGENRE=
TTITLE0=Huong Lan - Cho nguoi tinh nho
TTITLE1=Thanh Tuyen - Han Tha La
TTITLE2=Elvis Phuong - Roi mai toi dua em
TTITLE3=Giao Linh - Neu anh dung hen
TTITLE4=Tuan Vu - Thu cho vo hien
TTITLE5=Truc Ly - Doc tin tren bao
TTITLE6=Huong Lan - Mua Xuan khong con nua
TTITLE7=Duy Quang - Doi thong hai mo
TTITLE8=Giao Linh, Tuan Vu - Ai noi voi em
TTITLE9=Truc Ly - Hai mua mua
TTITLE10=Elvis Phuong - Ngay ve
TTITLE11=Thanh Tuyen - Thuong hoai ngan nam
EXTD=
EXTT0=
EXTT1=
EXTT2=
EXTT3=
EXTT4=
EXTT5=
EXTT6=
EXTT7=
EXTT8=
EXTT9=
EXTT10=
EXTT11=
PLAYORDER=
